<svg xmlns="http://www.w3.org/2000/svg" width="1200" height="800" viewBox="0 0 1200 800" role="img" aria-label="TechCare protection illustration">
  <defs>
    <linearGradient id="bg" x1="0" y1="0" x2="1" y2="1">
      <stop offset="0" stop-color="#2563eb" stop-opacity="0.18"/>
      <stop offset="1" stop-color="#06b6d4" stop-opacity="0.12"/>
    </linearGradient>
    <linearGradient id="shield" x1="0" y1="0" x2="0" y2="1">
      <stop offset="0" stop-color="#2563eb"/>
      <stop offset="1" stop-color="#0ea5e9"/>
    </linearGradient>
  </defs>
  <rect width="1200" height="800" rx="48" fill="url(#bg)"/>
  <g transform="translate(420 140)">
    <path d="M180 20c70 55 140 55 210 0v270c0 150-120 240-210 290-90-50-210-140-210-290V20c70 55 140 55 210 0z" fill="url(#shield)" opacity="0.95"/>
    <path d="M180 108l56 56 108-108 40 40-148 148-96-96z" fill="#ffffff" opacity="0.95"/>
  </g>
  <g opacity="0.18" fill="#0f172a">
    <circle cx="220" cy="220" r="8"/><circle cx="980" cy="260" r="10"/><circle cx="980" cy="620" r="8"/><circle cx="240" cy="610" r="10"/>
  </g>
</svg>
